<?xml version="1.0" encoding="UTF-8"?>
<svg xmlns="http://www.w3.org/2000/svg" version="1.1" viewBox="0 0 200 200">
  <defs>
    <style>
      .cls-1 {
        fill: #231f20;
      }

      .cls-1, .cls-2 {
        stroke: #231f20;
      }

      .cls-1, .cls-2, .cls-3 {
        stroke-miterlimit: 10;
        stroke-width: 4px;
      }

      .cls-2, .cls-3 {
        fill: #fff;
      }

      .cls-3 {
        stroke: #fff;
      }
    </style>
  </defs>
  <!-- Generator: Adobe Illustrator 28.7.7, SVG Export Plug-In . SVG Version: 1.2.0 Build 194)  -->
  <g>
    <g id="Layer_1">
      <circle class="cls-1" cx="156.36" cy="50.87" r="23.99"/>
      <circle class="cls-1" cx="46.79" cy="51.67" r="23.99"/>
      <circle class="cls-2" cx="100" cy="106.73" r="61.97"/>
      <path class="cls-2" d="M123.94,125.37c-5.62,12.09-7.41,12.72-10.12,12.48-5.38-.49-7.34-9.73-12.65-9.78-5.16-.05-7.23,10.74-12.31,10.79-3.77.04-8.62-8.19-10.79-13.49"/>
      <path class="cls-1" d="M91.53,92.21c-1.85,11.09-22.31,23.76-33.4,21.91-11.09-1.85-8.62-17.52-6.77-28.61,1.85-11.09,12.34-18.58,23.44-16.73s18.58,12.34,16.73,23.44Z"/>
      <path class="cls-1" d="M108.41,91.44c1.85,11.09,22.31,23.76,33.4,21.91,11.09-1.85,8.62-17.52,6.77-28.61-1.85-11.09-12.34-18.58-23.44-16.73s-18.58,12.34-16.73,23.44Z"/>
      <path class="cls-1" d="M94.76,109.18c1.33-3.62,13.68-3.98,15.18-.51,1.01,2.35-2.18,8.27-7.59,8.26-5.15,0-8.46-5.38-7.59-7.76Z"/>
      <circle class="cls-3" cx="70.77" cy="88.52" r="7.17"/>
      <circle class="cls-3" cx="138.02" cy="82.03" r="7.17"/>
    </g>
  </g>
</svg>