<?xml version="1.0" encoding="UTF-8"?>
<svg xmlns="http://www.w3.org/2000/svg" version="1.1" viewBox="0 0 70 70">
  <defs>
    <style>
      .cls-1 {
        fill: #408683;
      }

      .cls-1, .cls-2, .cls-3 {
        stroke: #231f20;
        stroke-miterlimit: 10;
      }

      .cls-2 {
        fill: #e369a8;
      }

      .cls-3 {
        fill: #fcbb68;
      }
    </style>
  </defs>
  <!-- Generator: Adobe Illustrator 28.7.7, SVG Export Plug-In . SVG Version: 1.2.0 Build 194)  -->
  <g>
    <g id="Layer_1">
      <circle class="cls-2" cx="35" cy="35" r="34.21"/>
      <ellipse class="cls-1" cx="21.74" cy="21.94" rx="7.72" ry="8.11"/>
      <ellipse class="cls-1" cx="48.42" cy="21.12" rx="7.72" ry="8.11"/>
      <ellipse class="cls-1" cx="21.74" cy="46.96" rx="7.72" ry="8.11"/>
      <ellipse class="cls-1" cx="48.57" cy="45.29" rx="7.72" ry="8.11"/>
      <path class="cls-3" d="M21.31,21.15c1.65-1.77,10.36,3.34,16.13,8.1,7.83,6.45,15.09,16.24,13.33,18.27-1.72,1.99-12.18-3.34-19.52-10.36-6.08-5.81-11.58-14.25-9.94-16.01Z"/>
      <path class="cls-3" d="M49.09,21.43c1.66,1.77-4.04,10.11-9.18,15.54-6.97,7.37-17.23,13.95-19.14,12.05-1.87-1.85,4.17-11.92,11.67-18.77,6.21-5.67,15-10.58,16.65-8.82Z"/>
    </g>
  </g>
</svg>